<svg width="20" height="20" viewBox="0 0 20 20" fill="none" xmlns="http://www.w3.org/2000/svg">
<path d="M17.3306 8.62997L4.20093 1.13778C3.9241 0.982713 3.60662 0.9156 3.29072 0.94537C2.97481 0.97514 2.67546 1.10038 2.43248 1.30444C2.18949 1.5085 2.01439 1.7817 1.93046 2.0877C1.84654 2.3937 1.85776 2.718 1.96265 3.01747L4.32046 9.99872L1.96265 16.98C1.87976 17.2155 1.85451 17.4674 1.88903 17.7147C1.92354 17.962 2.01682 18.1974 2.16103 18.4012C2.30525 18.6051 2.49621 18.7713 2.71792 18.8862C2.93963 19.001 3.18563 19.061 3.43531 19.0612C3.70381 19.0607 3.96768 18.9913 4.20171 18.8597L4.20874 18.855L17.3337 11.3495C17.5744 11.2133 17.7746 11.0156 17.9139 10.7767C18.0532 10.5378 18.1265 10.2663 18.1265 9.98974C18.1265 9.7132 18.0532 9.44163 17.9139 9.20273C17.7746 8.96384 17.5744 8.76619 17.3337 8.62997H17.3306ZM3.99702 16.8159L5.98296 10.9362H10.3103C10.5589 10.9362 10.7974 10.8374 10.9732 10.6616C11.149 10.4858 11.2478 10.2474 11.2478 9.99872C11.2478 9.75008 11.149 9.51162 10.9732 9.33581C10.7974 9.15999 10.5589 9.06122 10.3103 9.06122H5.98296L3.99624 3.17997L15.9306 9.99013L3.99702 16.8159Z" fill="white" style="fill:white;fill-opacity:1;"/>
</svg>
