<svg width="20" height="20" viewBox="0 0 20 20" fill="none" xmlns="http://www.w3.org/2000/svg">
<path d="M17.1334 8.62499L11.072 2.56355C10.7878 2.27946 10.4025 2.11987 10.0006 2.11987C9.59882 2.11987 9.21345 2.27946 8.92928 2.56355L2.86784 8.62499C2.72655 8.76541 2.61455 8.93249 2.53833 9.11653C2.46211 9.30057 2.4232 9.49791 2.42384 9.69711V16.9708C2.42384 17.212 2.51963 17.4432 2.69014 17.6138C2.86065 17.7843 3.09191 17.8801 3.33305 17.8801H16.6682C16.9094 17.8801 17.1406 17.7843 17.3111 17.6138C17.4816 17.4432 17.5774 17.212 17.5774 16.9708V9.69711C17.5781 9.49791 17.5392 9.30057 17.4629 9.11653C17.3867 8.93249 17.2747 8.76541 17.1334 8.62499ZM15.759 16.0616H4.24227V9.82213L10.0006 4.06376L15.759 9.82213V16.0616Z" fill="#070A1C" style="fill:#070A1C;fill:color(display-p3 0.0275 0.0392 0.1098);fill-opacity:1;"/>
</svg>
