<svg width="145" height="18" viewBox="0 0 145 18" fill="none" xmlns="http://www.w3.org/2000/svg">
<g clip-path="url(#clip0_13110_4262)">
<path d="M27.5719 1.382H31.8714L33.8907 11.7977L35.6662 4.23032C36.171 2.0056 37.2676 1.04492 38.9561 1.04492C40.6446 1.04492 41.7238 1.98874 42.246 4.23032L44.0215 11.7977L46.0407 1.382H50.3402L47.5377 14.1236C47.1374 15.9438 45.8841 16.9719 44.1782 16.9719C42.4723 16.9719 41.2712 15.9775 40.8708 14.309L38.9387 6.08425L37.0065 14.309C36.6061 15.9775 35.231 16.9719 33.6992 16.9719C32.1674 16.9719 30.74 15.9607 30.3396 14.1236L27.5371 1.382H27.5719Z" fill="#543C52" style="fill:#543C52;fill:color(display-p3 0.3294 0.2353 0.3216);fill-opacity:1;"/>
<path d="M51.2637 8.99997C51.2637 4.46626 54.7973 1.06177 59.5494 1.06177C64.3015 1.06177 67.8351 4.46626 67.8351 8.99997C67.8351 13.5337 64.3015 16.9382 59.5494 16.9382C54.7973 16.9382 51.2637 13.5337 51.2637 8.99997ZM63.4311 8.99997C63.4311 6.74154 61.7601 5.00559 59.5668 5.00559C57.3735 5.00559 55.7024 6.74154 55.7024 8.99997C55.7024 11.2584 57.3735 12.9944 59.5668 12.9944C61.7601 12.9944 63.4311 11.2584 63.4311 8.99997Z" fill="#543C52" style="fill:#543C52;fill:color(display-p3 0.3294 0.2353 0.3216);fill-opacity:1;"/>
<path d="M70.4102 16.6012V1.38208H77.0074C80.7325 1.38208 83.5698 3.06747 83.5698 6.43826C83.5698 9.80905 82.4036 10.0956 80.5584 10.6517C81.3417 11.1405 81.8639 12.0338 82.5602 13.3989L84.1617 16.6012H79.4792L78.017 13.736C77.4774 12.6911 76.8681 12.3203 75.4756 12.3203H74.6923V16.6012H70.4102ZM74.7097 5.20792V8.61242C74.6923 8.61242 76.99 8.61242 76.99 8.61242C78.2433 8.61242 79.131 7.93826 79.131 6.85961C79.131 5.78096 78.2433 5.20792 77.0422 5.20792H74.7097Z" fill="#543C52" style="fill:#543C52;fill:color(display-p3 0.3294 0.2353 0.3216);fill-opacity:1;"/>
<path d="M91.2644 12.7585H98.2097V16.5843H90.6899C88.0441 16.5843 86.9648 15.236 86.9648 13.0956V1.38208H91.2644V12.7585Z" fill="#543C52" style="fill:#543C52;fill:color(display-p3 0.3294 0.2353 0.3216);fill-opacity:1;"/>
<path d="M106.531 16.6012H100.316V1.38208H106.531C111.683 1.38208 115.095 4.43264 115.095 9.05062C115.095 13.6686 111.561 16.6012 106.531 16.6012ZM106.531 5.20792H104.616V12.8765H106.531C109.037 12.8765 110.674 11.3428 110.674 9.05062C110.674 6.75848 109.037 5.22478 106.531 5.22478V5.20792Z" fill="#543C52" style="fill:#543C52;fill:color(display-p3 0.3294 0.2353 0.3216);fill-opacity:1;"/>
<path d="M128.706 1.38208V16.6012H124.406V1.38208H128.706Z" fill="#543C52" style="fill:#543C52;fill:color(display-p3 0.3294 0.2353 0.3216);fill-opacity:1;"/>
<path d="M144.128 5.20792H139.689V16.5843H135.39V5.20792H130.951V1.38208H144.146V5.20792H144.128Z" fill="#543C52" style="fill:#543C52;fill:color(display-p3 0.3294 0.2353 0.3216);fill-opacity:1;"/>
<path d="M0.869141 4.66846H7.69267V8.37632H2.81872C1.73949 8.37632 0.869141 7.53363 0.869141 6.48868V4.66846Z" fill="#543C52" style="fill:#543C52;fill:color(display-p3 0.3294 0.2353 0.3216);fill-opacity:1;"/>
<path d="M5.74378 15.8091H0.86983L0.86983 12.1012H7.69336L7.69336 13.9214C7.69336 14.9664 6.82301 15.8091 5.74378 15.8091Z" fill="#543C52" style="fill:#543C52;fill:color(display-p3 0.3294 0.2353 0.3216);fill-opacity:1;"/>
<path d="M7.7978 8.17407C7.76299 8.17407 7.72817 8.17407 7.69336 8.17407V11.8988C7.72817 11.8988 7.76299 11.8988 7.7978 11.8988C10.9136 11.8988 13.4377 14.3595 13.4377 17.3595C13.4377 20.3595 13.4377 17.4269 13.4377 17.4606H17.2846C17.2846 17.4269 17.2846 17.3932 17.2846 17.3595C17.2846 12.3033 13.0373 8.17407 7.7978 8.17407Z" fill="#543C52" style="fill:#543C52;fill:color(display-p3 0.3294 0.2353 0.3216);fill-opacity:1;"/>
<path d="M9.81701 0.539307C11.0007 0.539307 11.9407 1.46627 11.9407 2.59549C11.9407 3.74155 10.9833 4.65167 9.81701 4.65167H7.69336V2.59549C7.69336 1.44942 8.65074 0.539307 9.81701 0.539307Z" fill="#543C52" style="fill:#543C52;fill:color(display-p3 0.3294 0.2353 0.3216);fill-opacity:1;"/>
<path d="M13.5421 6.15155H13.6291C14.691 6.15155 15.9617 6.01672 17.2498 5.79762C18.5205 5.57852 19.7738 5.27515 20.766 4.93807C20.8008 4.93807 20.8182 4.92122 20.853 4.90436C20.7312 4.04481 20.296 3.25268 19.6171 2.66279C18.9383 2.08976 18.0679 1.76953 17.1628 1.76953C15.335 1.76953 13.8206 3.05043 13.5073 4.71897C13.4725 4.92122 13.4551 5.14032 13.4551 5.35942C13.4551 5.57852 13.4551 5.46054 13.4551 5.49425C13.4551 5.71335 13.4899 5.93245 13.5421 6.1347V6.15155Z" fill="#543C52" style="fill:#543C52;fill:color(display-p3 0.3294 0.2353 0.3216);fill-opacity:1;"/>
<path d="M23.5689 4.28087C23.4819 3.80896 22.3679 3.55615 20.7316 3.55615C20.8361 3.7584 20.9231 3.96065 21.0101 4.17975C21.0101 4.21346 21.0275 4.24716 21.0449 4.28087C21.8108 4.28087 22.3156 4.36514 22.5942 4.44941C22.3505 4.61795 21.9153 4.85391 21.1842 5.12357L20.9405 5.20784L20.8535 5.24155C19.8787 5.57862 18.695 5.86514 17.4591 6.08424C17.4069 6.08424 17.3373 6.1011 17.285 6.11795C17.2154 6.11795 17.1458 6.1348 17.0762 6.15166C15.8751 6.35391 14.6914 6.45503 13.6818 6.47188H13.6122H13.2814C12.5155 6.47188 12.0107 6.38761 11.7322 6.30334C11.9759 6.1348 12.4111 5.89885 13.1422 5.62919C13.1422 5.59548 13.1422 5.56177 13.1422 5.52806C13.1422 5.4775 13.1422 5.42694 13.1422 5.37638C13.1422 5.20784 13.1422 5.02244 13.177 4.8539C11.6278 5.39323 10.6704 5.98312 10.7574 6.47188C10.8445 6.9775 12.1326 7.23031 13.9603 7.17975C14.0299 7.17975 14.0822 7.17975 14.1518 7.17975C15.0221 7.14604 15.9969 7.04492 16.9891 6.89323C17.0587 6.89323 17.1284 6.87638 17.198 6.85952C17.2676 6.85952 17.3373 6.84267 17.4069 6.82582C17.4765 6.82582 17.5461 6.80896 17.6158 6.79211C17.6854 6.79211 17.755 6.7584 17.8247 6.7584C18.8168 6.57301 19.7742 6.33705 20.5924 6.08424C20.6446 6.06739 20.7142 6.05053 20.7664 6.03368C22.5071 5.4775 23.6212 4.8202 23.5341 4.29773L23.5689 4.28087Z" fill="#543C52" style="fill:#543C52;fill:color(display-p3 0.3294 0.2353 0.3216);fill-opacity:1;"/>
<path d="M17.4751 7.11243C16.3263 7.31468 15.1774 7.43266 14.1504 7.46636C14.8467 8.39333 15.9607 8.94951 17.1444 8.94951C18.8329 8.94951 20.2602 7.854 20.7128 6.354C19.738 6.65737 18.624 6.91018 17.4751 7.11243Z" fill="#543C52" style="fill:#543C52;fill:color(display-p3 0.3294 0.2353 0.3216);fill-opacity:1;"/>
</g>
<defs>
<clipPath id="clip0_13110_4262">
<rect width="145" height="18" fill="white" style="fill:white;fill-opacity:1;"/>
</clipPath>
</defs>
</svg>
