<svg width="46" height="46" viewBox="0 0 46 46" fill="none" xmlns="http://www.w3.org/2000/svg">
<circle cx="23" cy="23" r="23" fill="#543C52" style="fill:#543C52;fill:color(display-p3 0.3294 0.2353 0.3216);fill-opacity:1;"/>
<path d="M14.3503 29.1781V17.9781H16.2863L20.7183 26.1061V17.9781H22.4783V29.1781H20.5423L16.1103 21.0501V29.1781H14.3503ZM28.8496 17.9781C29.9696 17.9781 30.8869 18.3461 31.6016 19.0821C32.3269 19.8181 32.6896 20.7568 32.6896 21.8981C32.6896 23.0394 32.3269 23.9781 31.6016 24.7141C30.8869 25.4501 29.9696 25.8181 28.8496 25.8181H26.5616V29.1781H24.7216V17.9781H28.8496ZM28.7376 24.1701C29.3456 24.1701 29.8469 23.9568 30.2416 23.5301C30.6469 23.0928 30.8496 22.5488 30.8496 21.8981C30.8496 21.2474 30.6469 20.7088 30.2416 20.2821C29.8469 19.8448 29.3456 19.6261 28.7376 19.6261H26.5616V24.1701H28.7376Z" fill="white" style="fill:white;fill-opacity:1;"/>
</svg>
